<svg width="800" height="600" xmlns="http://www.w3.org/2000/svg">
 <g>
  <title>Layer 1</title>
  <g id="svg_1" stroke="null">
   <g id="svg_2" stroke="null">
    <g id="svg_3" stroke="null">
     <path id="svg_4" class="cls-1" d="m537.96753,375.11722l0.37356,0c20.62042,0 36.08573,-12.1531 37.00717,-35.16428l-19.8982,0c-0.37356,10.85809 -6.45011,17.13387 -17.3082,17.13387l-0.37356,0c-12.32742,0 -18.05532,-6.99799 -18.05532,-23.93263l0,-11.77954c0,-17.13387 5.70299,-23.93263 18.05532,-23.93263l0.37356,0c10.85809,0 16.93464,6.07655 17.3082,17.13387l19.8982,0c-0.92144,-23.01119 -16.38676,-35.36352 -37.00717,-35.36352l-0.37356,0c-22.4633,0 -38.12785,14.17031 -38.12785,42.16228l0,11.77954c0,27.99197 15.66454,41.98795 38.12785,41.98795m-77.6005,-1.84289l20.42118,0l0,-92.24399l-20.42118,0l0,92.24399zm-71.89751,0l29.83485,0l27.07052,-92.24399l-21.1683,0l-19.69897,74.18867l-2.01721,0l-19.8733,-74.18867l-21.1683,0l27.07052,92.24399l-0.04981,0zm-61.68692,0l20.24686,0l0,-92.24399l-20.24686,0l0,92.24399zm-65.17346,1.84289l1.09577,0c25.05331,0 42.71016,-15.29098 42.71016,-46.02238l-20.44609,0c0,20.99397 -6.99799,27.61841 -22.28898,27.61841l-1.09577,0c-15.29098,0 -22.28898,-6.62443 -22.28898,-27.61841l0,-37.1815c0,-20.99397 6.99799,-27.61841 22.28898,-27.61841l1.09577,0c15.29098,0 22.28898,6.62443 22.28898,27.61841l20.44609,0c0,-30.7563 -17.68176,-46.02238 -42.71016,-46.02238l-1.09577,0c-25.05331,0 -42.71016,15.29098 -42.71016,46.02238l0,37.1815c0,30.7563 17.68176,46.02238 42.71016,46.02238" fill="#9a1765" stroke="null"/>
     <g id="svg_5" stroke="null">
      <path id="svg_6" class="cls-2" d="m345.18657,235.8298c-2.51529,-4.55741 -8.29299,-6.20107 -12.8504,-3.68577c-4.55741,2.51529 -6.20107,8.29299 -3.68577,12.8504c2.5402,4.55741 8.29299,6.20107 12.8504,3.68577c4.55741,-2.51529 6.20107,-8.29299 3.68577,-12.8504m-31.32909,17.35801c-7.0478,-12.72588 -2.44058,-28.78889 10.2853,-35.86159c12.72588,-7.0478 28.78889,-2.44058 35.86159,10.2853s2.44058,28.81379 -10.2853,35.86159s-28.81379,2.44058 -35.86159,-10.2853" fill="#8cb9ff" stroke="null"/>
      <path id="svg_7" class="cls-1" d="m385.70519,125.65501l-41.6891,89.38004c3.98462,1.12067 7.6953,3.16279 10.78338,6.02674l41.58949,-89.18081c-3.95972,-1.19539 -7.64549,-3.28731 -10.70867,-6.22597l0.0249,0z" fill="#9a1765" stroke="null"/>
      <path id="svg_8" class="cls-2" d="m412.25273,102.07104c-2.51529,-4.55741 -8.29299,-6.20107 -12.8504,-3.68577c-4.55741,2.51529 -6.20107,8.29299 -3.68577,12.8504c2.5402,4.55741 8.29299,6.20107 12.8504,3.68577c4.55741,-2.51529 6.20107,-8.29299 3.68577,-12.8504m-31.32909,17.35801c-7.0478,-12.72588 -2.44058,-28.78889 10.2853,-35.86159c12.72588,-7.0478 28.78889,-2.44058 35.86159,10.2853c7.0478,12.72588 2.44058,28.81379 -10.2853,35.86159c-12.72588,7.0478 -28.78889,2.44058 -35.86159,-10.2853" fill="#8cb9ff" stroke="null"/>
      <path id="svg_9" class="cls-1" d="m458.2751,180.94164c1.36971,-0.77202 2.78924,-1.36971 4.23366,-1.84289l-38.00333,-55.88432c-2.06702,2.59 -4.65703,4.80645 -7.7202,6.52482c-0.6724,0.37356 -1.36971,0.69731 -2.06702,1.02106l37.38073,54.96287c1.76818,-1.84289 3.8352,-3.46164 6.17616,-4.75664l0,-0.0249z" fill="#9a1765" stroke="null"/>
     </g>
     <g id="svg_10" stroke="null">
      <path id="svg_11" class="cls-1" d="m121.25084,392.3009l-41.24083,0l0,125.56538l41.24083,0c25.05331,0 42.71016,-15.29098 42.71016,-46.02238l0,-33.52063c0,-30.7563 -17.68176,-46.02238 -42.71016,-46.02238l0,0.00001zm22.4633,79.54301c0,20.81965 -7.17232,27.07052 -22.4633,27.07052l-20.79474,0l0,-87.63677l20.79474,0c15.29098,0 22.4633,6.07655 22.4633,27.07052l0,33.52063l0,-0.0249z" fill="#9a1765" stroke="null"/>
      <path id="svg_12" class="cls-1" d="m416.586,461.16014c0,-25.0284 -12.70098,-37.38073 -34.44207,-37.38073l-0.74712,0c-20.24686,0 -35.71217,10.48454 -37.92862,34.06851l20.62042,0c0.92144,-12.52665 7.91944,-15.83887 16.56108,-15.83887l0.72221,0c9.588,0 15.63964,4.98078 15.63964,19.32541l0,2.59l-24.48052,2.93866c-21.54186,2.39077 -32.22563,10.68377 -32.22563,25.94985l0,0.92144c0,15.46531 11.40598,25.94985 28.91341,25.94985l0.74712,0c12.87531,0 20.79474,-5.1551 24.85408,-13.99598l2.21645,0l1.46933,12.1531l31.67774,0l0,-18.05532l-13.62242,0l0,-38.67573l0.0249,0.04981zm-19.52465,17.85608c0,13.4481 -5.90222,23.38475 -23.93263,23.38475l-0.72221,0c-8.09376,0 -12.70098,-3.48654 -12.70098,-9.38876l0,-0.74712c0,-5.70299 3.68577,-9.588 16.0132,-11.05732l21.36753,-2.5651l0,0.37356l-0.0249,0l-0.00001,-0.00001z" fill="#9a1765" stroke="null"/>
      <path id="svg_13" class="cls-1" d="m689.80651,423.80431l-0.54789,0c-11.97877,0 -20.07253,5.87732 -24.10696,15.29098l-2.21645,0l0,-53.76749l-20.24686,0l0,132.56337l19.8733,0l0,-14.54387l2.01721,0c4.05933,9.93665 11.95386,16.38676 24.48052,16.38676l0.37356,0c19.32541,0 30.55707,-15.09175 30.55707,-42.16228l0,-10.68377c0,-27.07052 -11.77954,-43.08372 -30.18351,-43.08372l0.00001,0.00002zm9.76232,52.29816c0,16.38676 -5.52866,24.67975 -17.3082,24.67975l-0.72221,0c-13.62242,0 -18.6032,-10.13588 -18.6032,-23.55907l0,-10.68377c0,-13.62242 4.98078,-23.75831 18.6032,-23.75831l0.72221,0c11.77954,0 17.3082,9.01521 17.3082,25.60119l0,7.74511l0,-0.0249z" fill="#9a1765" stroke="null"/>
      <path id="svg_14" class="cls-1" d="m615.9914,461.16014c0,-25.0284 -12.70098,-37.38073 -34.44207,-37.38073l-0.74712,0c-20.24686,0 -35.71217,10.48454 -37.92862,34.06851l20.62042,0c0.92144,-12.52665 7.91944,-15.83887 16.56108,-15.83887l0.74712,0c9.56309,0 15.63964,4.98078 15.63964,19.32541l0,2.59l-24.48052,2.93866c-21.54186,2.39077 -32.22563,10.68377 -32.22563,25.94985l0,0.92144c0,15.46531 11.40598,25.94985 28.91341,25.94985l0.74712,0c12.87531,0 20.79474,-5.1551 24.85408,-13.99598l2.21645,0l1.46933,12.1531l31.67774,0l0,-18.05532l-13.62242,0l0,-38.67573l0,0.04981l-0.00001,0zm-19.52465,17.85608c0,13.4481 -5.90222,23.38475 -23.93263,23.38475l-0.74712,0c-8.09376,0 -12.70098,-3.48654 -12.70098,-9.38876l0,-0.74712c0,-5.70299 3.68577,-9.588 16.0132,-11.05732l21.36753,-2.5651l0,0.37356l0,-0.00001z" fill="#9a1765" stroke="null"/>
      <path id="svg_15" class="cls-1" d="m253.26633,461.16014c0,-25.0284 -12.70098,-37.38073 -34.44207,-37.38073l-0.74712,0c-20.24686,0 -35.71217,10.48454 -37.92862,34.06851l20.62042,0c0.92144,-12.52665 7.91944,-15.83887 16.56108,-15.83887l0.74712,0c9.56309,0 15.63964,4.98078 15.63964,19.32541l0,2.59l-24.48052,2.93866c-21.54186,2.39077 -32.22563,10.68377 -32.22563,25.94985l0,0.92144c0,15.46531 11.40598,25.94985 28.91341,25.94985l0.74712,0c12.90021,0 20.79474,-5.1551 24.85408,-13.99598l2.21645,0l1.46933,12.1531l31.67774,0l0,-18.05532l-13.62242,0l0,-38.67573l0,0.04981l-0.00001,0zm-19.52465,17.85608c0,13.4481 -5.87732,23.38475 -23.93263,23.38475l-0.74712,0c-8.09376,0 -12.70098,-3.48654 -12.70098,-9.38876l0,-0.74712c0,-5.70299 3.68577,-9.588 16.0132,-11.05732l21.36753,-2.5651l0,0.37356l0,-0.00001z" fill="#9a1765" stroke="null"/>
      <polygon id="svg_16" class="cls-1" points="480.8379821777344,392.30088806152344 460.3919982910156,392.30088806152344 460.3919982910156,517.8912200927734 530.9197387695312,517.8912200927734 530.9197387695312,498.91441345214844 480.8379821777344,498.91441345214844 480.8379821777344,392.30088806152344 " fill="#9a1765" stroke="null"/>
      <path id="svg_17" class="cls-1" d="m304.44381,493.93365l0,-50.08171l24.30619,0l0,-18.22964l-24.30619,0l0,-45.37488c-5.37924,5.25472 -12.27761,8.61674 -20.24686,10.11098l0,35.2639l-16.76031,0l0,18.22964l16.76031,0l0,47.86526c0,15.29098 9.56309,26.14908 26.14908,26.14908l18.97676,0l0,-18.05532l-18.97676,0c-4.78155,0 -5.90222,-1.46933 -5.90222,-5.90222l0,0.0249l0,0.00001z" fill="#9a1765" stroke="null"/>
     </g>
     <path id="svg_18" class="cls-2" d="m479.34379,199.42032c-2.51529,-4.55741 -8.29299,-6.20107 -12.8504,-3.68577c-4.55741,2.51529 -6.20107,8.29299 -3.68577,12.8504c2.51529,4.55741 8.29299,6.20107 12.8504,3.68577c4.55741,-2.51529 6.20107,-8.29299 3.68577,-12.8504m-31.32909,17.35801c-7.0478,-12.72588 -2.44058,-28.78889 10.2853,-35.86159c12.72588,-7.0478 28.81379,-2.44058 35.86159,10.2853c7.0478,12.72588 2.44058,28.81379 -10.2853,35.86159c-12.72588,7.0478 -28.81379,2.44058 -35.86159,-10.2853" fill="#8cb9ff" stroke="null"/>
     <path id="svg_19" class="cls-1" d="m629.38969,144.85591l-135.15338,46.54536c2.06702,3.78539 3.08808,7.89453 3.1877,11.92896l136.17444,-46.89401c-2.34097,-3.53635 -3.73558,-7.49607 -4.20876,-11.58031z" fill="#9a1765" stroke="null"/>
     <path id="svg_20" class="cls-2" d="m661.91416,134.91926c-3.8601,-3.51145 -9.83703,-3.2375 -13.34848,0.59769c-3.51145,3.8601 -3.2375,9.83703 0.59769,13.34848c3.8601,3.51145 9.83703,3.2375 13.34848,-0.59769c3.51145,-3.8601 3.2375,-9.83703 -0.59769,-13.34848m-24.15677,26.44792c-10.73357,-9.81213 -11.50559,-26.52264 -1.69346,-37.25621c9.81213,-10.73357 26.52264,-11.50559 37.25621,-1.69346c10.73357,9.81213 11.50559,26.52264 1.69346,37.25621c-9.81213,10.73357 -26.52264,11.50559 -37.25621,1.69346" fill="#8cb9ff" stroke="null"/>
    </g>
   </g>
  </g>
 </g>

</svg>